<?xml version="1.0" encoding="utf-8"?>
<!-- Generator: Adobe Illustrator 18.1.0, SVG Export Plug-In . SVG Version: 6.00 Build 0)  -->
<svg version="1.1" id="Layer_1" xmlns="http://www.w3.org/2000/svg" xmlns:xlink="http://www.w3.org/1999/xlink" x="0px" y="0px"
	 viewBox="-249 0 1500 2000" enable-background="new -249 0 1500 2000" xml:space="preserve">
<path fill="#E3E0D1" d="M340.6,817.7c7,1.4,12.6,2.8,17.7,2.8c12.6,0.5,24.7,1.4,37.3,3.7c18.6,3.7,37.8,6.5,56.9,6.5
	c8.9,0,14-3.7,14.9-12.6c1.9-13.5,3.3-27,4.7-40.6c0.9-10.3,2.3-12.6,12.6-14.9c4.2-0.9,9.3-0.9,13.5-2.3
	c15.9-5.1,31.7-10.3,48-15.4c7-1.9,13.1-5.1,17.7-10.7c10.3-11.7,20.5-22.8,30.3-35c6.1-7.5,9.8-16.3,9.3-27
	c-0.9-16.3-2.3-32.6-9.3-48c-3.7-8.4-5.1-17.2-11.7-24.7c-7-8.4-13.5-16.8-21-25.2c-2.8-2.8-6.5-5.6-10.3-7
	c-13.1-4.2-25.6-9.3-39.2-11.7c-16.3-3.3-32.6-1.9-45.7,9.8c-14.5,12.6-28,26.6-42,39.6c-1.4,0.9-1.9,2.8-2.3,4.7
	c-7.5,20-17.2,39.2-20,60.6c-1.9,14-5.6,27.5-7,41.5c-1.9,18.2-2.3,36.4-17.7,49.4c-1.9,1.9-3.3,4.7-4.7,7
	c-8.9,13.5-18.2,26.6-27,40.1C343.9,811.2,343,814,340.6,817.7z"/>
<polygon fill="#E3E0D1" points="304.3,823.3 196.1,448 117.3,5.1 156,2.8 230.6,438.2 329,813.5 "/>
<path fill="#E3E0D1" d="M592.8,1100.2c-0.5-22.8-0.5-45.2-2.8-68.1c-3.7-38.7-4.7-77.9-7-116.6c-0.5-7.9-1.4-15.9-2.8-23.8
	c-0.5-3.3-1.9-5.6-0.9-9.8c2.3-7,0-10.7-7.5-13.5c-14-5.6-28.4-12.1-42.9-16.8c-11.7-4.2-23.8-8.4-36.8-6.5
	c-4.7,0.9-9.8,1.9-14.5,1.4c-23.3-0.9-46.6,1.4-69.9,4.2c-20,2.3-40.6,3.3-60.6,4.2c-16.3,0.5-32.2,0-48.5,0
	c-9.8,0-19.6,1.4-31.2,1.9c0.9,10.3,2.3,19.1,2.8,27.5c1.4,35.4-2.3,70.9,1.9,106.3c2.3,21-0.5,42,2.3,62.9
	c1.9,15.9,2.3,32.2,2.3,48c0,20.5,3.3,41,3.7,61.5c0.9,22.8,3.3,45.2,4.7,68.1c0,1.4,0,2.3,0.5,3.7c0,0.5,0,1.4,0,1.9
	c2.3,11.2,9.8,20,19.1,26.6l0.5,0.5c0,0,0.5,0,0.5,0.5c14.9,7.9,31.7,8.4,48.5,9.8c18.2,1.4,36.4,2.3,54.5,3.7
	c11.7,1.9,23.8,3.7,35.4,5.1c8.9,0.9,18.2,0,27-0.9c4.7-0.5,9.3-1.9,14.5-2.3c9.3-0.5,18.2,0,27.5,0c3.3,0,6.1,0.9,9.3,1.4
	c6.1,0.5,12.6,1.4,18.6,1.4c7.9,0,15.9-0.5,23.8-0.5c1.9,0,4.7,0.9,6.1-0.5c7.9-6.1,15.4-13.1,17.2-22.8c1.9-11.2,1.9-22.8,2.3-34.5
	c0.5-15.4,0.9-30.8,1.4-46.2c0-1.9,0.9-4.2,0.9-6.1c0.5-4.7,1.9-9.8,1.9-14.5C594.2,1138,593.3,1118.9,592.8,1100.2z"/>
<path fill="#E3E0D1" d="M858.1,1155.2c-2.3-23.8-3.7-47.6-7-70.9c-3.7-27.5-7.9-54.5-12.6-82.1c-1.4-8.4-2.8-16.8-7-23.8
	c-5.1-8.9-12.6-16.8-19.6-24.7c-10.7-12.6-22.4-25.2-33.1-38.2c-21-26.6-43.8-51.3-69.5-72.7c-2.8-2.3-7.5-4.2-11.2-4.7
	c-10.3-0.5-20.5,0-30.8,0c-4.7,0-7.9,1.4-10.7,5.1c-18.6,22.4-37.3,44.3-52.2,69.9c-0.5,1.4-1.4,2.3-2.3,3.3
	c-7.9,7.5-7.5,16.3-2.3,24.7c8.4,13.5,16.8,27.5,26.1,40.6c20,27.5,41,54.1,62,81.1c13.1,17.2,26.1,34.5,39.2,52.2
	c16.8,22.4,33.6,45.2,49.9,68.1c7.5,10.3,12.1,21.9,14.9,34.5l0,0l47.6-11.7l22.8-10.7C860.9,1181.8,859.5,1168.8,858.1,1155.2z"/>
<path fill="#E3E0D1" d="M913.1,1300.2c-5.1-8.9-10.7-17.2-15.9-26.1c-3.7-6.1-8.4-11.7-12.6-17.7c0.5-0.9,0.9-1.4,1.4-2.3
	c6.5,1.4,13.5,3.3,20,4.7c5.1,0.9,10.3-1.9,11.7-6.5c1.9-5.6-1.9-7.5-6.1-9.3c-3.7-1.4-7-3.3-10.7-4.7
	c-10.3-3.3-17.2-10.3-24.7-17.2c-1.4-1.4-2.3-3.3-3.3-5.1l-48,7.9l-23.8,9.8c0.9,11.2-1.9,14.9-14.5,19.6c-1.9,0.9-4.2,1.4-6.1,2.3
	c-12.1,6.1-24.2,12.1-25.6,28c0,1.4-0.5,4.2,0.5,4.7c1.4,0.9,3.7,0.9,5.6,0.5c14-4.2,28-8.9,42-13.1c7-1.9,9.8,0,8.9,7
	c-1.9,18.2,1.9,35.4,3.3,53.1c0.5,4.7,2.3,9.3,4.2,14c1.9,4.2,5.6,6.5,10.3,5.6c4.7-0.5,7.5-4.2,7.5-8.9c0.5-3.3,0-7,0-10.7
	c0.5-11.2,0.5-22.4,1.4-33.6c0-2.3,1.9-4.2,3.3-7c2.3,1.9,4.2,3.3,4.7,4.7c1.4,4.2,2.8,8.9,3.7,13.1c1.4,6.5,2.3,13.1,3.3,19.6
	c1.4,6.1,5.6,8.9,11.7,8.4c5.6-0.5,6.5-4.2,6.5-8.9c0-6.5,0-12.6,0-19.1c0-7.5-1.9-15.4,3.7-22.8c13.1,9.3,17.7,24.2,28,34.5
	C915,1318.4,917.8,1309.1,913.1,1300.2z"/>
</svg>
