<?xml version="1.0" encoding="utf-8"?>
<!-- Generator: Adobe Illustrator 18.1.0, SVG Export Plug-In . SVG Version: 6.00 Build 0)  -->
<svg version="1.1" id="Layer_1" xmlns="http://www.w3.org/2000/svg" xmlns:xlink="http://www.w3.org/1999/xlink" x="0px" y="0px"
	 viewBox="-249 0 1500 2000" enable-background="new -249 0 1500 2000" xml:space="preserve">
<path fill="#E3E0D1" d="M340.6,817.7c7,1.4,12.6,2.8,17.7,2.8c12.6,0.5,24.7,1.4,37.3,3.7c18.6,3.7,37.8,6.5,56.9,6.5
	c8.9,0,14-3.7,14.9-12.6c1.9-13.5,3.3-27,4.7-40.6c0.9-10.3,2.3-12.6,12.6-14.9c4.2-0.9,9.3-0.9,13.5-2.3
	c15.9-5.1,31.7-10.3,48-15.4c7-1.9,13.1-5.1,17.7-10.7c10.3-11.7,20.5-22.8,30.3-35c6.1-7.5,9.8-16.3,9.3-27
	c-0.9-16.3-2.3-32.6-9.3-48c-3.7-8.4-5.1-17.2-11.7-24.7c-7-8.4-13.5-16.8-21-25.2c-2.8-2.8-6.5-5.6-10.3-7
	c-13.1-4.2-25.6-9.3-39.2-11.7c-16.3-3.3-32.6-1.9-45.7,9.8c-14.5,12.6-28,26.6-42,39.6c-1.4,0.9-1.9,2.8-2.3,4.7
	c-7.5,20-17.2,39.2-20,60.6c-1.9,14-5.6,27.5-7,41.5c-1.9,18.2-2.3,36.4-17.7,49.4c-1.9,1.9-3.3,4.7-4.7,7
	c-8.9,13.5-18.2,26.6-27,40.1C343.9,811.2,343,814,340.6,817.7z"/>
<polygon fill="#E3E0D1" points="304.3,823.3 196.1,448 117.3,5.1 156,2.8 230.6,438.2 329,813.5 "/>
<path fill="#E3E0D1" d="M592.8,1100.2c-0.5-22.8-0.5-45.2-2.8-68.1c-3.7-38.7-4.7-77.9-7-116.6c-0.5-7.9-1.4-15.9-2.8-23.8
	c-0.5-3.3-1.9-5.6-0.9-9.8c2.3-7,0-10.7-7.5-13.5c-14-5.6-28.4-12.1-42.9-16.8c-11.7-4.2-23.8-8.4-36.8-6.5
	c-4.7,0.9-9.8,1.9-14.5,1.4c-23.3-0.9-46.6,1.4-69.9,4.2c-20,2.3-40.6,3.3-60.6,4.2c-16.3,0.5-32.2,0-48.5,0
	c-9.8,0-19.6,1.4-31.2,1.9c0.9,10.3,2.3,19.1,2.8,27.5c1.4,35.4-2.3,70.9,1.9,106.3c2.3,21-0.5,42,2.3,62.9
	c1.9,15.9,2.3,32.2,2.3,48c0,20.5,3.3,41,3.7,61.5c0.9,22.8,3.3,45.2,4.7,68.1c0,1.4,0,2.3,0.5,3.7c0,0.5,0,1.4,0,1.9
	c2.3,11.2,9.8,20,19.1,26.6l0.5,0.5c0,0,0.5,0,0.5,0.5c14.9,7.9,31.7,8.4,48.5,9.8c18.2,1.4,36.4,2.3,54.5,3.7
	c11.7,1.9,23.8,3.7,35.4,5.1c8.9,0.9,18.2,0,27-0.9c4.7-0.5,9.3-1.9,14.5-2.3c9.3-0.5,18.2,0,27.5,0c3.3,0,6.1,0.9,9.3,1.4
	c6.1,0.5,12.6,1.4,18.6,1.4c7.9,0,15.9-0.5,23.8-0.5c1.9,0,4.7,0.9,6.1-0.5c7.9-6.1,15.4-13.1,17.2-22.8c1.9-11.2,1.9-22.8,2.3-34.5
	c0.5-15.4,0.9-30.8,1.4-46.2c0-1.9,0.9-4.2,0.9-6.1c0.5-4.7,1.9-9.8,1.9-14.5C594.2,1138,593.3,1118.9,592.8,1100.2z"/>
</svg>
